<?xml version="1.0" encoding="UTF-8"?>
<svg xmlns="http://www.w3.org/2000/svg" width="512" height="512" viewBox="0 0 512 512">
  <defs><clipPath id="sh"><polygon points="104.0,64.0 408.0,64.0 408.0,252.0 408.0,252.0 407.8,264.5 407.2,276.7 406.3,288.4 404.9,299.8 403.2,310.7 401.0,321.3 398.5,331.5 395.6,341.3 392.3,350.7 388.6,359.8 384.5,368.4 380.1,376.7 375.2,384.5 370.0,392.0 364.4,399.1 358.4,405.8 352.0,412.1 345.2,418.0 338.0,423.6 330.4,428.7 322.5,433.5 314.2,437.9 305.4,441.9 296.3,445.5 286.8,448.7 276.9,451.5 266.7,453.9 256.0,456.0 256.0,456.0 245.3,453.9 235.1,451.5 225.2,448.7 215.7,445.5 206.6,441.9 197.8,437.9 189.5,433.5 181.6,428.7 174.0,423.6 166.8,418.0 160.0,412.1 153.6,405.8 147.6,399.1 142.0,392.0 136.8,384.5 131.9,376.7 127.5,368.4 123.4,359.8 119.7,350.7 116.4,341.3 113.5,331.5 111.0,321.3 108.8,310.7 107.1,299.8 105.7,288.4 104.8,276.7 104.2,264.5 104.0,252.0 104.0,64.0"/></clipPath></defs>
  <polygon points="104.0,64.0 408.0,64.0 408.0,252.0 408.0,252.0 407.8,264.5 407.2,276.7 406.3,288.4 404.9,299.8 403.2,310.7 401.0,321.3 398.5,331.5 395.6,341.3 392.3,350.7 388.6,359.8 384.5,368.4 380.1,376.7 375.2,384.5 370.0,392.0 364.4,399.1 358.4,405.8 352.0,412.1 345.2,418.0 338.0,423.6 330.4,428.7 322.5,433.5 314.2,437.9 305.4,441.9 296.3,445.5 286.8,448.7 276.9,451.5 266.7,453.9 256.0,456.0 256.0,456.0 245.3,453.9 235.1,451.5 225.2,448.7 215.7,445.5 206.6,441.9 197.8,437.9 189.5,433.5 181.6,428.7 174.0,423.6 166.8,418.0 160.0,412.1 153.6,405.8 147.6,399.1 142.0,392.0 136.8,384.5 131.9,376.7 127.5,368.4 123.4,359.8 119.7,350.7 116.4,341.3 113.5,331.5 111.0,321.3 108.8,310.7 107.1,299.8 105.7,288.4 104.8,276.7 104.2,264.5 104.0,252.0 104.0,64.0" fill="#1b1b1a"/>
  <g clip-path="url(#sh)"><line x1="150" y1="150" x2="200" y2="350" stroke="#e9e6dd" stroke-width="20"/><line x1="196" y1="150" x2="246" y2="350" stroke="#e9e6dd" stroke-width="20"/><line x1="242" y1="150" x2="292" y2="350" stroke="#e9e6dd" stroke-width="20"/></g>
</svg>
